<svg xmlns="http://www.w3.org/2000/svg" width="1200" height="800" viewBox="0 0 1200 800">
  <defs>
    <linearGradient id="panel" x1="0" y1="0" x2="0" y2="1">
      <stop offset="0%" stop-color="#ffffff"/>
      <stop offset="100%" stop-color="#eef3ff"/>
    </linearGradient>
    <radialGradient id="glowBlue" cx="25%" cy="20%" r="30%">
      <stop offset="0%" stop-color="#8da9ff" stop-opacity="0.55"/>
      <stop offset="100%" stop-color="#8da9ff" stop-opacity="0"/>
    </radialGradient>
    <radialGradient id="glowGreen" cx="80%" cy="22%" r="28%">
      <stop offset="0%" stop-color="#57d9bd" stop-opacity="0.5"/>
      <stop offset="100%" stop-color="#57d9bd" stop-opacity="0"/>
    </radialGradient>
  </defs>

  <g>
    <rect x="60" y="60" width="1080" height="680" rx="28" fill="url(#panel)" stroke="#dbe3f8"/>
    <circle cx="340" cy="180" r="200" fill="url(#glowBlue)" opacity="0.55"/>
    <circle cx="920" cy="170" r="180" fill="url(#glowGreen)" opacity="0.55"/>
  </g>

  <!-- Top nav chips -->
  <g fill="none" stroke="#d2dcf5" stroke-width="2">
    <rect x="160" y="240" width="300" height="66" rx="14" fill="#ffffff"/>
    <rect x="480" y="240" width="300" height="66" rx="14" fill="#ffffff"/>
    <rect x="800" y="240" width="300" height="66" rx="14" fill="#ffffff"/>
  </g>

  <!-- Cards list -->
  <g>
    <rect x="160" y="340" width="460" height="120" rx="18" fill="#ffffff" stroke="#d2dcf5"/>
    <rect x="160" y="480" width="460" height="120" rx="18" fill="#ffffff" stroke="#d2dcf5"/>
    <rect x="640" y="340" width="460" height="260" rx="18" fill="#ffffff" stroke="#d2dcf5"/>
  </g>

  <!-- Accent ring on middle card -->
  <rect x="150" y="468" width="480" height="144" rx="24" fill="none" stroke="#39c3a3" opacity="0.55"/>

  <!-- Subtle separators -->
  <g stroke="#d9e2fb" opacity="0.85">
    <line x1="160" y1="620" x2="1100" y2="620"/>
    <line x1="160" y1="650" x2="1100" y2="650"/>
  </g>

</svg>

